<svg width="168" height="72" viewBox="0 0 168 72" fill="none" xmlns="http://www.w3.org/2000/svg">
<path fill-rule="evenodd" clip-rule="evenodd" d="M150.247 15.9798H129.031L118.206 46.101L102.619 0.0585938H73.1757L56.7221 46.9616L43.7325 9.95556H20.2422L0 67.6162H21.2164L23.3813 60.7313H40.2679L42.8658 67.6162H50.2266L48.9276 71.0586H74.4739L77.5048 62.8828H97.8553L101.319 71.0586H126.865L125.566 67.6162H129.896L132.061 61.5919H146.783L149.381 67.6162H168L150.247 15.9798ZM87.8966 27.5977L93.0925 45.2401H82.2678L87.8966 27.5977ZM36.3711 46.531L32.0412 32.331L27.2783 46.531H36.3711ZM135.092 48.6825L139.422 35.7735L143.319 48.6825H135.092Z" fill="#161A2A"/>
</svg>
