<svg width="25" height="26" viewBox="0 0 25 26" fill="none" xmlns="http://www.w3.org/2000/svg">
<path d="M21.44 22.008C19.0827 24.2747 16.1813 25.408 12.736 25.408C9.29067 25.408 6.38933 24.2747 4.032 22.008C1.67467 19.7187 0.496 16.7493 0.496 13.1C0.496 9.45067 1.67467 6.49267 4.032 4.226C6.38933 1.93667 9.29067 0.792 12.736 0.792C16.1813 0.792 19.0827 1.93667 21.44 4.226C23.7973 6.49267 24.976 9.45067 24.976 13.1C24.976 16.7493 23.7973 19.7187 21.44 22.008ZM6.378 13.882H16.612L11.716 18.846H14.062L19.536 13.1L14.062 7.32H11.716L16.578 12.284H6.378V13.882Z" fill="#1B1F20"/>
</svg>
