<svg width="14" height="14" viewBox="0 0 14 14" fill="none" xmlns="http://www.w3.org/2000/svg">
<path d="M11.88 11.9599C10.632 13.1599 9.096 13.7599 7.272 13.7599C5.448 13.7599 3.912 13.1599 2.664 11.9599C1.416 10.7479 0.792 9.17595 0.792 7.24394C0.792 5.31194 1.416 3.74594 2.664 2.54595C3.912 1.33395 5.448 0.727945 7.272 0.727945C9.096 0.727945 10.632 1.33395 11.88 2.54595C13.128 3.74594 13.752 5.31194 13.752 7.24394C13.752 9.17595 13.128 10.7479 11.88 11.9599ZM3.906 7.65794H9.324L6.732 10.2859H7.974L10.872 7.24394L7.974 4.18394H6.732L9.306 6.81195H3.906V7.65794Z" fill="#1B1F20"/>
</svg>
